<svg id="eI5yeulYVJk1" xmlns="http://www.w3.org/2000/svg" xmlns:xlink="http://www.w3.org/1999/xlink" viewBox="0 0 803.05238 591.37509" shape-rendering="geometricPrecision" text-rendering="geometricPrecision"><path d="M997.07789,189.37527h-794.15576c-2.455625-.002678-4.445636-1.992685-4.44832-4.44831v-26.1662c.002684-2.455625,1.992695-4.445632,4.44832-4.44831h794.15576c2.45562.002684,4.445622,1.99269,4.4483,4.44831v26.16624c-.002706,2.455602-1.992698,4.445581-4.4483,4.44827Z" transform="translate(-198.474-154.312)" fill="#d5d5d5"/><circle r="6.3155" transform="translate(25.8155 16.2551)" fill="#6c63ff"/><circle r="6.3155" transform="translate(49.787 16.2551)" fill="#6c63ff"/><circle r="6.3155" transform="translate(73.7597 16.2551)" fill="#6c63ff"/><path d="M973.59083,166.2207h-27.60413c-1.127516-.002493-2.040228-.917226-2.040228-2.044745s.912712-2.042252,2.040228-2.044745h27.60413c1.128355-.000809,2.04409.912551,2.046212,2.040904s-.910172,2.045151-2.038522,2.048586Z" transform="translate(-198.474-154.312)" fill="#6c63ff"/><path d="M973.59083,173.88852h-27.60413c-1.127516-.002493-2.040228-.917226-2.040228-2.044745s.912712-2.042252,2.040228-2.044745h27.60413c1.128355-.000809,2.04409.912551,2.046212,2.040904s-.910172,2.045151-2.038522,2.048586Z" transform="translate(-198.474-154.312)" fill="#6c63ff"/><path d="M973.59083,181.55634h-27.60413c-1.129284,0-2.04475-.915466-2.04475-2.04475s.915466-2.04475,2.04475-2.04475h27.60413c1.129284-.002124,2.046471.911621,2.048595,2.040905s-.911621,2.046471-2.040905,2.048595Z" transform="translate(-198.474-154.312)" fill="#6c63ff"/><path d="M424.91688,674.27641c2.92224-23.4981,17.48511-46.65063,39.89523-54.29754-8.838006,24.186135-8.836094,50.71888.0054,74.90374c3.44358,9.31476,8.24353,19.31641,5.0044,28.70429-2.01535,5.84137-6.94565,10.31055-12.4567,13.105-5.51141,2.79443-11.6279,4.12634-17.66788,5.43158l-1.18869.98315c-9.58834-21.65102-16.514-45.33205-13.59176-68.83022Z" transform="translate(-196.541749-152.921755)" fill="#c7c4c4"/><path d="M465.03449,620.4232c-13.050598,14.622804-21.16192,32.98596-23.18185,52.4812-.509362,4.189169-.355207,8.432445.45679,12.57361.921329,4.008453,2.899256,7.697058,5.72827,10.68256c2.58185,2.83667,5.5513,5.43933,7.39865,8.85425c1.860119,3.563917,2.110782,7.7523.689,11.51263-1.631,4.678-4.84564,8.491-8.11886,12.11054-3.63428,4.01879-7.47284,8.13549-9.0177,13.46337-.1872.64557-1.17789.31739-.991-.32721c2.68777-9.26959,11.68607-14.53485,15.97736-22.88385c2.00238-3.89581,2.84286-8.41864.96566-12.531-1.64154-3.59613-4.70135-6.28259-7.34039-9.1322-2.80248-2.872001-4.859098-6.386529-5.9902-10.23658-1.020218-4.086448-1.337585-8.316713-.93851-12.50964.747859-9.453953,2.977539-18.731529,6.60736-27.49286c4.087231-10.02222,9.858778-19.271413,17.06493-27.34741.44623-.4997,1.13385.28632.69055.78271Z" transform="translate(-198.474-154.312)" fill="#fff"/><path d="M442.13355,666.58873c-6.660522-1.617048-11.168854-7.821276-10.64955-14.65558.023863-.280307.265462-.491348.546434-.477318s.500345.248088.496166.529378c-.495496,6.365544,3.720755,12.142962,9.93414,13.61249.65334.1553.32241,1.14545-.32719.99103Z" transform="translate(-198.474-154.312)" fill="#fff"/><path d="M446.53916,694.89464c5.824498-3.477742,10.124204-9.023039,12.04175-15.53015.18945-.64484,1.18024-.3169.991.32721-2.008089,6.767731-6.494325,12.529372-12.56339,16.13507-.5787.34323-1.04492-.5907-.46936-.93213Z" transform="translate(-198.474-154.312)" fill="#fff"/><path d="M452.33448,637.95433c2.406421,1.143541,5.226582,1.000369,7.50482-.381.57407-.35046,1.03971.584.46936.93213-2.523092,1.51378-5.63245,1.67854-8.30139.43988-.267157-.097784-.412424-.386261-.33191-.65912.091537-.272644.385577-.420704.65912-.33189Z" transform="translate(-198.474-154.312)" fill="#fff"/><path d="M533.12128,661.94939c-.35223.229-.70446.458-1.05712.69586-4.719601,3.103488-9.17927,6.585274-13.335,10.411-.326.29071-.652.59015-.969.88965-9.913866,9.323774-18.010537,20.407107-23.87842,32.68658-2.330475,4.888426-4.28566,9.947071-5.84863,15.13214-2.15814,7.16095-3.92835,15.09687-8.20032,20.95423-.43884.616096-.915419,1.204419-1.427,1.76159h-38.60558c-.08774-.044-.1759-.07928-.26407-.12335l-1.54141.0705c.06192-.273.132-.55493.194-.82794.03528-.15857.07913-.31708.11441-.47565.02624-.10571.05289-.21143.07052-.30829.00861-.03522.01764-.07043.02625-.09686.01764-.09687.04431-.185.06192-.27307q.58122-2.365,1.19778-4.72992c0-.00885,0-.00885.00861-.01764c3.01694-12.043758,7.451927-23.68711,13.212-34.686.17633-.32586.35223-.66058.5462-.98651c2.667268-4.868755,5.728003-9.511367,9.15164-13.88147c1.882374-2.386904,3.884376-4.676985,5.99832-6.86145c5.472962-5.633812,11.798019-10.371709,18.74329-14.04c13.84637-7.31067,29.87671-10.11157,44.67444-5.64593.37843.11479.74873.22924,1.12717.35253Z" transform="translate(-195.82537-154.312)" fill="#c7c4c4"/><path d="M533.03452,662.43938c-19.224116,3.818112-36.756446,13.596489-50.10672,27.94622-2.928851,3.038152-5.360504,6.518981-7.20544,10.31434-1.677763,3.755231-2.319317,7.891237-1.858,11.97827.35357,3.81939,1.15756,7.68524.57657,11.52411-.660557,3.965496-2.982113,7.460587-6.38129,9.607-4.11878,2.75317-8.98114,3.86218-13.77384,4.7815-5.32138,1.02069-10.86477,1.99658-15.306,5.32049-.53812.40271-1.13157-.45581-.59427-.85791c7.727-5.783,18.08166-4.56946,26.53466-8.652c3.94434-1.905,7.33847-5.01019,8.31559-9.424.85443-3.85962.02877-7.84686-.36267-11.711-.50848-3.980414-.034588-8.02479,1.38028-11.77984c1.645756-3.877028,3.939262-7.445729,6.78231-10.55329c6.28907-7.098188,13.655088-13.163399,21.82822-17.97345c9.29749-5.541401,19.4744-9.451509,30.09042-11.56115.65714-.13031.73294.91125.08011,1.04071Z" transform="translate(-198.474-154.312)" fill="#fff"/><path d="M486.95457,685.512c-4.344479-5.301208-4.208754-12.96926.32061-18.1134.44547-.50245,1.24717.16619.80109.66931-4.22814,4.784203-4.340098,11.935638-.26379,16.84985.42813.51741-.43222,1.10871-.85791.59424Z" transform="translate(-198.474-154.312)" fill="#fff"/><path d="M473.43006,710.76518c6.744374.729939,13.516089-1.108951,18.96488-5.15.53952-.40082,1.13311.45758.59426.85791-5.677977,4.194658-12.72888,6.094009-19.74557,5.319-.66873-.07439-.47863-1.10082.18643-1.02691Z" transform="translate(-198.474-154.312)" fill="#fff"/><path d="M512.3393,668.7907c1.232913,2.361875,3.570841,3.945492,6.22156,4.21423.66934.06579.47855,1.09222-.18643,1.02685-2.925936-.310414-5.507769-2.05091-6.893-4.64679-.154424-.23891-.096736-.556684.13181-.72607.237239-.162586.561162-.10377.7261.13184Z" transform="translate(-198.474-154.312)" fill="#fff"/><path d="M458.76688,336.75688h-127.72558c-8.21826-.009424-14.878051-6.66943-14.88721-14.88769v-69.56545c.009215-8.218083,6.669127-14.877785,14.88721-14.88674h127.72558c8.218073.008961,14.877979,6.668647,14.88721,14.88672v69.56543c-.009137,8.218276-6.668935,14.878306-14.88721,14.88773Z" transform="translate(-198.474-154.312)" fill="#d5d5d5"/><path d="M653.76688,336.75688h-127.72558c-8.21826-.009424-14.878051-6.66943-14.88721-14.88769v-69.56545c.009215-8.218083,6.669127-14.877785,14.88721-14.88674h127.72558c8.218078.00895,14.87799,6.668643,14.88721,14.88672v69.56543c-.009148,8.218271-6.668939,14.878295-14.88721,14.88773Z" transform="translate(-198.474-154.312)" fill="#6c63ff"/><path d="M848.76688,336.75688h-127.72558c-8.21826-.009424-14.878051-6.66943-14.88721-14.88769v-69.56545c.009215-8.218083,6.669127-14.877785,14.88721-14.88674h127.72558c8.218078.00895,14.87799,6.668643,14.88721,14.88672v69.56543c-.009148,8.218271-6.668939,14.878295-14.88721,14.88773Z" transform="translate(-198.474-154.312)" fill="#d5d5d5"/><path d="M458.76688,491.75688h-127.72558c-8.21826-.009424-14.878051-6.66943-14.88721-14.88769v-69.56543c.00922-8.218084,6.669126-14.877788,14.88721-14.88676h127.72558c8.218071.008966,14.877973,6.668649,14.88721,14.88672v69.56543c-.009137,8.218276-6.668935,14.878306-14.88721,14.88773Z" transform="translate(-198.474-154.312)" fill="#d5d5d5"/><path d="M653.76688,491.75688h-127.72558c-8.21826-.009424-14.878051-6.66943-14.88721-14.88769v-69.56543c.00922-8.218084,6.669126-14.877788,14.88721-14.88676h127.72558c8.218075.008955,14.877984,6.668645,14.88721,14.88672v69.56543c-.009148,8.218271-6.668939,14.878295-14.88721,14.88773Z" transform="translate(-198.474-154.312)" fill="#d5d5d5"/><g><circle r="22.8122" transform="translate(464.312 327.433)" fill="#6c63ff"/><path d="M672.25828,479.82985h-7.75611v-7.75613c.000011-.484046-.192268-.94827-.534536-1.290545s-.806488-.534565-1.290534-.534565v0c-.484045.000003-.948263.192293-1.290531.534568s-.534547.806497-.534539,1.290542v7.75613h-7.75611c-.484044,0-.948262.192288-1.29053.534561s-.534548.806495-.53454,1.290539v0c-.000008.484045.192272.948267.534539,1.290542s.806486.534565,1.290531.534568h7.75617v7.75613c-.000008.484044.192272.948265.53454,1.290539s.806486.534561,1.29053.534561v0c1.00796,0,1.825074-.81711,1.82508-1.82507v-7.75622h7.756c.484045-.000003.948263-.192293,1.290531-.534568s.534547-.806497.534539-1.290542v0c.000008-.484044-.192272-.948265-.53454-1.290539s-.806486-.534561-1.29053-.534561v0Z" transform="translate(-198.474-154.312)" fill="#fff"/></g><g transform="translate(193.471272-153.090064)"><circle r="22.8122" transform="translate(464.312 327.433)" fill="#6c63ff"/><path d="M672.25828,479.82985h-7.75611v-7.75613c.000011-.484046-.192268-.94827-.534536-1.290545s-.806488-.534565-1.290534-.534565v0c-.484045.000003-.948263.192293-1.290531.534568s-.534547.806497-.534539,1.290542v7.75613h-7.75611c-.484044,0-.948262.192288-1.29053.534561s-.534548.806495-.53454,1.290539v0c-.000008.484045.192272.948267.534539,1.290542s.806486.534565,1.290531.534568h7.75617v7.75613c-.000008.484044.192272.948265.53454,1.290539s.806486.534561,1.29053.534561v0c1.00796,0,1.825074-.81711,1.82508-1.82507v-7.75622h7.756c.484045-.000003.948263-.192293,1.290531-.534568s.534547-.806497.534539-1.290542v0c.000008-.484044-.192272-.948265-.53454-1.290539s-.806486-.534561-1.29053-.534561v0Z" transform="translate(-198.474-154.312)" fill="#fff"/></g><g><circle r="22.8122" transform="translate(269.312 174.433)" fill="#6c63ff"/><path d="M477.25828,326.82985h-7.75614v-7.75613c.000005-.484044-.192275-.948265-.534542-1.290539s-.806484-.534566-1.290528-.534571v0c-.484048,0-.948271.192288-1.290544.534563s-.534559.806499-.534556,1.290547v0v7.75613h-7.75614c-.484047,0-.948268.192287-1.290541.534559s-.534559.806494-.534559,1.290541v0c-.000006,1.007967.817103,1.825093,1.82507,1.82511h7.75614v7.75613c-.000003.484047.192283.94827.534556,1.290544s.806497.534559,1.290544.534556v0c.484043.000005.948263-.192276,1.290536-.534543s.534561-.806484.534564-1.290527v-7.75622h7.75614c.484048,0,.948271-.192288,1.290544-.534563s.534559-.806499.534556-1.290547v0c0-.484047-.192287-.948268-.534559-1.290541s-.806494-.534559-1.290541-.534559v0Z" transform="translate(-198.474-154.312)" fill="#fff"/></g><path id="eI5yeulYVJk33" d="M638.57566,297.23225c.842535,2.548447.51301,5.339191-.899908,7.621319s-3.764094,3.821221-6.420892,4.203151l-10.54828,72.00079-17.303-8.451l17.40372-71.8703c-.35343-4.606905,2.794669-8.750081,7.327805-9.644038s9.018483,1.743864,10.440505,6.140038Z" transform="translate(-198.474-154.312)" fill="#9e616a"/><path id="eI5yeulYVJk34" d="M512.5893,527.83214c1.559294-2.184757,2.070775-4.947977,1.396812-7.546117s-2.464137-4.764306-4.888812-5.915613l7.11621-76.58634-14.90473,7.63986-4.654,73.80091c-1.701513,4.295759.078853,9.185242,4.144135,11.381186s9.130518,1.004253,11.790285-2.773886Z" transform="translate(-198.474-154.312)" fill="#9e616a"/><polygon points="324.298,334.784 388.259,332.324 391.949,265.903 318.148,265.903 324.298,334.784" fill="#9e616a"/><polygon points="312.427,569.355 323.357,569.354 328.556,527.197 312.425,527.197 312.427,569.355" fill="#9e616a"/><path d="M508.18961,718.27562l17.27774-1.03125v7.40253l16.42643,11.34466c1.665408,1.149824,2.389566,3.249067,1.787298,5.181153s-2.390999,3.248012-4.414778,3.247847h-20.56979l-3.5455-7.32221-1.38434,7.32221h-7.75561Z" transform="translate(-198.474-154.312)" fill="#2f2e41"/><polygon points="361.041,569.355 371.971,569.354 377.17,527.197 361.039,527.197 361.041,569.355" fill="#9e616a"/><g transform="translate(.000001 0.000001)"><path d="M521.88435,473.5041c0,0-19.13755,15.45038-8.76307,70.62845-1.5798.1883.20908,3.30231.20908,3.30231l1.497,44.95953l1.15683,5.1529-3.84607,8.31463l1.58551,9.034-4.888,81.9917l18.05719,2.33508L544.173,614.07915l3.2909-9.57257l3.3009-8.39075-1.78055-8.94769l1.46033-13.88788l9.96188-46.829l2.43869,81.21808-3.403,7.75378l1.89376,8.5116-4.219,4.51819-1.66748,75.98993l19.25439.90063l15.9311-76.60315-1.23529-9.77545l2.1195-7.22791v-16.88309l3.63025-7.96808l7.914-43.44751c0,0,2.38742-33.95831-15.03183-73.91895Z" transform="translate(-198.186265-146.41506)" fill="#2f2e41"/></g><path d="M529.68385,365.01326c0,0-24.17157,4.78046-28.33655,25.39468s-6.84455,67.26288-6.84455,67.26288l.91214,6.49622l23.38169,5.42178l14.92358-65.36273Z" transform="translate(-198.474-154.312)" fill="#3f3d56"/><path d="M584.84711,371.97145c0,0,2.45014-3.43347,16.17112-3.963.56491-.02179-.13456-1.14252-.13456-1.14252l6.59879-32.25272l21.9906,12.17527-3.7121,33.813-36.13556,41.10065Z" transform="translate(-198.474-154.312)" fill="#3f3d56"/><path d="M571.13981,468.12233c-10.3526.00079-25.936-1.14172-49.39554-4.62451-3.101566-.467759-5.53833-2.898526-6.01373-5.99893-1.569577-1.657101-1.933873-4.119482-.91135-6.16007l.02179-.04278-.53155-.6265c-1.689584-1.984806-1.847809-4.852852-.38681-7.01147l-7.2652-51.97477c-1.523317-10.662651,4.934418-20.84961,15.22772-24.02145l2.682-.83508l10.14248-13.26648.2.00232l32.5607.4335l10.56662,13.41824l17.08081,4.02756.04438.26l3.96609,22.914c2.06241,11.91773-2.66794,16.606-8.70578,27.0863l1.77213,29.43436.804,1.46082c.920596,1.668276.522285,3.755672-.94793,4.96774.538882,1.539651.575668,3.210524.10507,4.7724l-.41794,1.38065c.00079.0397-.11054.60083-1.01254,1.2857-1.62595,1.23503-6.29483,3.11845-19.58542,3.11845Z" transform="translate(-198.474-152.49022)" fill="#3f3d56"/><path d="M556.80378,718.27562l17.27774-1.03125v7.40253l16.42642,11.34466c1.665407,1.149823,2.389565,3.249064,1.7873,5.181148s-2.390993,3.248013-4.41477,3.247852h-20.56979l-3.54551-7.32221-1.38433,7.32221h-7.75565Z" transform="translate(-198.474-154.312)" fill="#2f2e41"/><circle id="eI5yeulYVJk45" r="25.5265" transform="matrix(.16018-.98709 0.98709 0.16018 351.279265 166.248178)" fill="#9e616a"/><path id="eI5yeulYVJk46" d="M564.67988,295.61836c-9.35593-6.43451-17.59488-7.41464-24.36267-5.58966-.877293-1.357023-2.107609-2.449489-3.55887-3.16012-5.27838-13.30008-21.34168-21.28745-35.127-17.40467-13.87448,3.9079-23.44757,19.27674-20.83691,33.45273c1.61789,8.787,7.14792,16.39591,9.37222,25.04932c4.30573,16.75143-6.19781,35.94018-22.62927,41.34c15.55756,3.12384,32.68268-6.37912,38.264-21.23346c2.71084-7.215,2.87433-15.09237,3.219-22.79211.090616-5.314681.741754-10.604968,1.9426-15.783.595889-2.323055,1.437893-4.575914,2.51172-6.72034c2.338964-4.713619,6.223683-8.482547,11.0059-10.67785-.868753,2.687008-.391727,5.627888,1.28183,7.90252-3.6485,4.57053-5.63455,9.51328-5.63455,12.47333-7.57935,13.8526,3.25924,25.75144,17.11218,33.3306c5.525225,3.038886,11.905152,4.151147,18.13275,3.16122l.57956-2.474.78522,2.22855l2.62121,7.47122q4.5358,2.19425,8.993,4.81055c-1.12893-5.30145-2.04214-10.59311-2.67059-15.767-.87006-7.04193,2.16293-17.52557,4.3508-23.90094c1.35657-3.929203,2.052773-8.056015,2.06033-12.2128v-.18173l2.13034,6.8428l7.75577-3.3085c-1.44286-8.27612.00007-17.67154-17.29857-16.85666Z" transform="translate(-198.474-154.312)" fill="#2f2e41"/><path d="M883.647,745.68755h-567.294c-.655259-.003289-1.184713-.535408-1.184713-1.190675s.529454-1.187386,1.184713-1.190675h567.294c.655259.003289,1.184713.535408,1.184713,1.190675s-.529454,1.187386-1.184713,1.190675Z" transform="translate(-198.474-154.312)" fill="#ccc"/><circle r="22.8122" transform="translate(266.704 330.431)" fill="#e6e6e6"/><g id="eI5yeulYVJk49" transform="matrix(2.336548 0 0 2.356367-819.722755-173.384892)"><path d="M841.01058,459.26566h-65.938c-5.827095-.006481-10.549326-4.728556-10.556-10.55565v-39.35987c.002432-1.072342.87242-1.94036,1.944765-1.94036s1.942333.868018,1.944765,1.94036v10.54109l76.59074,6.96239c3.182499.05648,5.733878,2.650652,5.73742,5.83365.000006.120207-.011125.240156-.03325.35831l-3.85977,20.58457c-.110474,3.14142-2.68731,5.632006-5.83067,5.63551Zm-72.60435-35.46909v24.91343c.004343,3.679917,2.986513,6.661949,6.66643,6.66612h65.938c1.073583-.001157,1.943607-.871177,1.94477-1.94476-.000006-.120207.011125-.240156.03325-.35831l3.85058-20.53587c-.079563-1.012306-.923643-1.79355-1.93907-1.79472-.05888,0-.11743-.00253-.176-.00824Z" transform="translate(-198.474-154.312)" fill="#6c63ff"/><circle r="3.24127" transform="translate(559.078 319.863)" fill="#6c63ff"/><circle r="3.24127" transform="translate(639.944 319.863)" fill="#6c63ff"/><path d="M841.65884,470.93421h-86.70052c-1.074061,0-1.94476-.870699-1.94476-1.94476s.870699-1.94476,1.94476-1.94476h86.70052c1.074061,0,1.94476.870699,1.94476,1.94476s-.870699,1.94476-1.94476,1.94476Z" transform="translate(-198.474-154.312)" fill="#6c63ff"/><path d="M771.6475,410.64665h-16.85461c-1.072342-.002432-1.94036-.87242-1.94036-1.944765s.868018-1.942333,1.94036-1.944765h16.85461c1.072342.002432,1.94036.87242,1.94036,1.944765s-.868018,1.942333-1.94036,1.944765Z" transform="translate(-198.474-154.312)" fill="#6c63ff"/><path d="M785.16871,469.94411c-.464825.000431-.91431-.166283-1.26643-.46972l-12.78276-10.98486c-.528665-.452317-.775416-1.152602-.647077-1.83642s.612213-1.246978,1.268907-1.476828s1.386151-.091366,1.91292.363158L786.437,466.52431c.617052.530215.838855,1.388487.555954,2.151277s-1.010714,1.268871-1.824274,1.268503Z" transform="translate(-198.474-154.312)" fill="#6c63ff"/><path d="M787.86214,458.07106c-.515752.000032-1.010393-.20482-1.375107-.569491s-.569624-.859287-.569653-1.375039v-31.21833c0-1.074061.870699-1.94476,1.94476-1.94476s1.94476.870699,1.94476,1.94476v31.2181c.000034.51575-.204814,1.010389-.569481,1.375103s-.859279.569625-1.375029.569657Z" transform="translate(-198.474-154.312)" fill="#6c63ff"/><path d="M828.94353,458.07106c-.515758.000034-1.010404-.204819-1.37512-.569494s-.569626-.859298-.56965-1.375056v-28.62527c.002432-1.072342.87242-1.94036,1.944765-1.94036s1.942333.868018,1.944765,1.94036v28.62508c.000027.515754-.204832,1.010394-.569508,1.375104s-.859298.569615-1.375052.569636Z" transform="translate(-198.474-154.312)" fill="#6c63ff"/></g>
<script><![CDATA[
!function(t,n){"object"==typeof exports&&"undefined"!=typeof module?module.exports=n():"function"==typeof __SVGATOR_DEFINE__&&__SVGATOR_DEFINE__.amd?__SVGATOR_DEFINE__(n):((t="undefined"!=typeof globalThis?globalThis:t||self).__SVGATOR_PLAYER__=t.__SVGATOR_PLAYER__||{},t.__SVGATOR_PLAYER__["5c7f360c"]=n())}(this,(function(){"use strict";function t(t,n){var e=Object.keys(t);if(Object.getOwnPropertySymbols){var r=Object.getOwnPropertySymbols(t);n&&(r=r.filter((function(n){return Object.getOwnPropertyDescriptor(t,n).enumerable}))),e.push.apply(e,r)}return e}function n(n){for(var e=1;e<arguments.length;e++){var r=null!=arguments[e]?arguments[e]:{};e%2?t(Object(r),!0).forEach((function(t){u(n,t,r[t])})):Object.getOwnPropertyDescriptors?Object.defineProperties(n,Object.getOwnPropertyDescriptors(r)):t(Object(r)).forEach((function(t){Object.defineProperty(n,t,Object.getOwnPropertyDescriptor(r,t))}))}return n}function e(t){return(e="function"==typeof Symbol&&"symbol"==typeof Symbol.iterator?function(t){return typeof t}:function(t){return t&&"function"==typeof Symbol&&t.constructor===Symbol&&t!==Symbol.prototype?"symbol":typeof t})(t)}function r(t,n){if(!(t instanceof n))throw new TypeError("Cannot call a class as a function")}function i(t,n){for(var e=0;e<n.length;e++){var r=n[e];r.enumerable=r.enumerable||!1,r.configurable=!0,"value"in r&&(r.writable=!0),Object.defineProperty(t,r.key,r)}}function o(t,n,e){return n&&i(t.prototype,n),e&&i(t,e),t}function u(t,n,e){return n in t?Object.defineProperty(t,n,{value:e,enumerable:!0,configurable:!0,writable:!0}):t[n]=e,t}function a(t){return(a=Object.setPrototypeOf?Object.getPrototypeOf:function(t){return t.__proto__||Object.getPrototypeOf(t)})(t)}function l(t,n){return(l=Object.setPrototypeOf||function(t,n){return t.__proto__=n,t})(t,n)}function s(){if("undefined"==typeof Reflect||!Reflect.construct)return!1;if(Reflect.construct.sham)return!1;if("function"==typeof Proxy)return!0;try{return Boolean.prototype.valueOf.call(Reflect.construct(Boolean,[],(function(){}))),!0}catch(t){return!1}}function f(t,n,e){return(f=s()?Reflect.construct:function(t,n,e){var r=[null];r.push.apply(r,n);var i=new(Function.bind.apply(t,r));return e&&l(i,e.prototype),i}).apply(null,arguments)}function c(t,n){if(n&&("object"==typeof n||"function"==typeof n))return n;if(void 0!==n)throw new TypeError("Derived constructors may only return object or undefined");return function(t){if(void 0===t)throw new ReferenceError("this hasn't been initialised - super() hasn't been called");return t}(t)}function h(t,n,e){return(h="undefined"!=typeof Reflect&&Reflect.get?Reflect.get:function(t,n,e){var r=function(t,n){for(;!Object.prototype.hasOwnProperty.call(t,n)&&null!==(t=a(t)););return t}(t,n);if(r){var i=Object.getOwnPropertyDescriptor(r,n);return i.get?i.get.call(e):i.value}})(t,n,e||t)}function v(t){return function(t){if(Array.isArray(t))return y(t)}(t)||function(t){if("undefined"!=typeof Symbol&&null!=t[Symbol.iterator]||null!=t["@@iterator"])return Array.from(t)}(t)||function(t,n){if(!t)return;if("string"==typeof t)return y(t,n);var e=Object.prototype.toString.call(t).slice(8,-1);"Object"===e&&t.constructor&&(e=t.constructor.name);if("Map"===e||"Set"===e)return Array.from(t);if("Arguments"===e||/^(?:Ui|I)nt(?:8|16|32)(?:Clamped)?Array$/.test(e))return y(t,n)}(t)||function(){throw new TypeError("Invalid attempt to spread non-iterable instance.\nIn order to be iterable, non-array objects must have a [Symbol.iterator]() method.")}()}function y(t,n){(null==n||n>t.length)&&(n=t.length);for(var e=0,r=new Array(n);e<n;e++)r[e]=t[e];return r}Number.isInteger||(Number.isInteger=function(t){return"number"==typeof t&&isFinite(t)&&Math.floor(t)===t}),Number.EPSILON||(Number.EPSILON=2220446049250313e-31);var g=d(Math.pow(10,-6));function d(t){var n=arguments.length>1&&void 0!==arguments[1]?arguments[1]:6;if(Number.isInteger(t))return t;var e=Math.pow(10,n);return Math.round((+t+Number.EPSILON)*e)/e}function p(t,n){var e=arguments.length>2&&void 0!==arguments[2]?arguments[2]:g;return Math.abs(t-n)<e}var m=Math.PI/180;function b(t){return t}function w(t,n,e){var r=1-e;return 3*e*r*(t*r+n*e)+e*e*e}function A(){var t=arguments.length>0&&void 0!==arguments[0]?arguments[0]:0,n=arguments.length>1&&void 0!==arguments[1]?arguments[1]:0,e=arguments.length>2&&void 0!==arguments[2]?arguments[2]:1,r=arguments.length>3&&void 0!==arguments[3]?arguments[3]:1;return t<0||t>1||e<0||e>1?null:p(t,n)&&p(e,r)?b:function(i){if(i<=0)return t>0?i*n/t:0===n&&e>0?i*r/e:0;if(i>=1)return e<1?1+(i-1)*(r-1)/(e-1):1===e&&t<1?1+(i-1)*(n-1)/(t-1):1;for(var o,u=0,a=1;u<a;){var l=w(t,e,o=(u+a)/2);if(p(i,l))break;l<i?u=o:a=o}return w(n,r,o)}}function _(){return 1}function x(t){return 1===t?1:0}function k(){var t=arguments.length>0&&void 0!==arguments[0]?arguments[0]:1,n=arguments.length>1&&void 0!==arguments[1]?arguments[1]:0;if(1===t){if(0===n)return x;if(1===n)return _}var e=1/t;return function(t){return t>=1?1:(t+=n*e)-t%e}}var S=Math.sin,O=Math.cos,j=Math.acos,E=Math.asin,M=Math.tan,P=Math.atan2,I=Math.PI/180,R=180/Math.PI,F=Math.sqrt,N=function(){function t(){var n=arguments.length>0&&void 0!==arguments[0]?arguments[0]:1,e=arguments.length>1&&void 0!==arguments[1]?arguments[1]:0,i=arguments.length>2&&void 0!==arguments[2]?arguments[2]:0,o=arguments.length>3&&void 0!==arguments[3]?arguments[3]:1,u=arguments.length>4&&void 0!==arguments[4]?arguments[4]:0,a=arguments.length>5&&void 0!==arguments[5]?arguments[5]:0;r(this,t),this.m=[n,e,i,o,u,a],this.i=null,this.w=null,this.s=null}return o(t,[{key:"determinant",get:function(){var t=this.m;return t[0]*t[3]-t[1]*t[2]}},{key:"isIdentity",get:function(){if(null===this.i){var t=this.m;this.i=1===t[0]&&0===t[1]&&0===t[2]&&1===t[3]&&0===t[4]&&0===t[5]}return this.i}},{key:"point",value:function(t,n){var e=this.m;return{x:e[0]*t+e[2]*n+e[4],y:e[1]*t+e[3]*n+e[5]}}},{key:"translateSelf",value:function(){var t=arguments.length>0&&void 0!==arguments[0]?arguments[0]:0,n=arguments.length>1&&void 0!==arguments[1]?arguments[1]:0;if(!t&&!n)return this;var e=this.m;return e[4]+=e[0]*t+e[2]*n,e[5]+=e[1]*t+e[3]*n,this.w=this.s=this.i=null,this}},{key:"rotateSelf",value:function(){var t=arguments.length>0&&void 0!==arguments[0]?arguments[0]:0;if(t%=360){var n=S(t*=I),e=O(t),r=this.m,i=r[0],o=r[1];r[0]=i*e+r[2]*n,r[1]=o*e+r[3]*n,r[2]=r[2]*e-i*n,r[3]=r[3]*e-o*n,this.w=this.s=this.i=null}return this}},{key:"scaleSelf",value:function(){var t=arguments.length>0&&void 0!==arguments[0]?arguments[0]:1,n=arguments.length>1&&void 0!==arguments[1]?arguments[1]:1;if(1!==t||1!==n){var e=this.m;e[0]*=t,e[1]*=t,e[2]*=n,e[3]*=n,this.w=this.s=this.i=null}return this}},{key:"skewSelf",value:function(t,n){if(n%=360,(t%=360)||n){var e=this.m,r=e[0],i=e[1],o=e[2],u=e[3];t&&(t=M(t*I),e[2]+=r*t,e[3]+=i*t),n&&(n=M(n*I),e[0]+=o*n,e[1]+=u*n),this.w=this.s=this.i=null}return this}},{key:"resetSelf",value:function(){var t=arguments.length>0&&void 0!==arguments[0]?arguments[0]:1,n=arguments.length>1&&void 0!==arguments[1]?arguments[1]:0,e=arguments.length>2&&void 0!==arguments[2]?arguments[2]:0,r=arguments.length>3&&void 0!==arguments[3]?arguments[3]:1,i=arguments.length>4&&void 0!==arguments[4]?arguments[4]:0,o=arguments.length>5&&void 0!==arguments[5]?arguments[5]:0,u=this.m;return u[0]=t,u[1]=n,u[2]=e,u[3]=r,u[4]=i,u[5]=o,this.w=this.s=this.i=null,this}},{key:"recomposeSelf",value:function(){var t=arguments.length>0&&void 0!==arguments[0]?arguments[0]:null,n=arguments.length>1&&void 0!==arguments[1]?arguments[1]:null,e=arguments.length>2&&void 0!==arguments[2]?arguments[2]:null,r=arguments.length>3&&void 0!==arguments[3]?arguments[3]:null,i=arguments.length>4&&void 0!==arguments[4]?arguments[4]:null;return this.isIdentity||this.resetSelf(),t&&(t.x||t.y)&&this.translateSelf(t.x,t.y),n&&this.rotateSelf(n),e&&(e.x&&this.skewSelf(e.x,0),e.y&&this.skewSelf(0,e.y)),!r||1===r.x&&1===r.y||this.scaleSelf(r.x,r.y),i&&(i.x||i.y)&&this.translateSelf(i.x,i.y),this}},{key:"decompose",value:function(){var t=arguments.length>0&&void 0!==arguments[0]?arguments[0]:0,n=arguments.length>1&&void 0!==arguments[1]?arguments[1]:0,e=this.m,r=e[0]*e[0]+e[1]*e[1],i=[[e[0],e[1]],[e[2],e[3]]],o=F(r);if(0===o)return{origin:{x:d(e[4]),y:d(e[5])},translate:{x:d(t),y:d(n)},scale:{x:0,y:0},skew:{x:0,y:0},rotate:0};i[0][0]/=o,i[0][1]/=o;var u=e[0]*e[3]-e[1]*e[2]<0;u&&(o=-o);var a=i[0][0]*i[1][0]+i[0][1]*i[1][1];i[1][0]-=i[0][0]*a,i[1][1]-=i[0][1]*a;var l=F(i[1][0]*i[1][0]+i[1][1]*i[1][1]);if(0===l)return{origin:{x:d(e[4]),y:d(e[5])},translate:{x:d(t),y:d(n)},scale:{x:d(o),y:0},skew:{x:0,y:0},rotate:0};i[1][0]/=l,i[1][1]/=l,a/=l;var s=0;return i[1][1]<0?(s=j(i[1][1])*R,i[0][1]<0&&(s=360-s)):s=E(i[0][1])*R,u&&(s=-s),a=P(a,F(i[0][0]*i[0][0]+i[0][1]*i[0][1]))*R,u&&(a=-a),{origin:{x:d(e[4]),y:d(e[5])},translate:{x:d(t),y:d(n)},scale:{x:d(o),y:d(l)},skew:{x:d(a),y:0},rotate:d(s)}}},{key:"clone",value:function(){var t=this.m;return new this.constructor(t[0],t[1],t[2],t[3],t[4],t[5])}},{key:"toString",value:function(){var t=arguments.length>0&&void 0!==arguments[0]?arguments[0]:" ";if(null===this.s){var n=this.m.map((function(t){return d(t)}));1===n[0]&&0===n[1]&&0===n[2]&&1===n[3]?this.s="translate("+n[4]+t+n[5]+")":this.s="matrix("+n.join(t)+")"}return this.s}}],[{key:"create",value:function(t){return t?Array.isArray(t)?f(this,v(t)):t instanceof this?t.clone():(new this).recomposeSelf(t.origin,t.rotate,t.skew,t.scale,t.translate):new this}}]),t}();function T(t,n,e){return t>=.5?e:n}function q(t,n,e){return 0===t||n===e?n:t*(e-n)+n}function B(t,n,e){var r=q(t,n,e);return r<=0?0:r}function D(t,n,e){var r=q(t,n,e);return r<=0?0:r>=1?1:r}function L(t,n,e){return 0===t?n:1===t?e:{x:q(t,n.x,e.x),y:q(t,n.y,e.y)}}function C(t,n,e){var r=function(t,n,e){return Math.round(q(t,n,e))}(t,n,e);return r<=0?0:r>=255?255:r}function V(t,n,e){return 0===t?n:1===t?e:{r:C(t,n.r,e.r),g:C(t,n.g,e.g),b:C(t,n.b,e.b),a:q(t,null==n.a?1:n.a,null==e.a?1:e.a)}}function G(t,n){for(var e=[],r=0;r<t;r++)e.push(n);return e}function z(t,n){if(--n<=0)return t;var e=(t=Object.assign([],t)).length;do{for(var r=0;r<e;r++)t.push(t[r])}while(--n>0);return t}var Y,$=function(){function t(n){r(this,t),this.list=n,this.length=n.length}return o(t,[{key:"setAttribute",value:function(t,n){for(var e=this.list,r=0;r<this.length;r++)e[r].setAttribute(t,n)}},{key:"removeAttribute",value:function(t){for(var n=this.list,e=0;e<this.length;e++)n[e].removeAttribute(t)}},{key:"style",value:function(t,n){for(var e=this.list,r=0;r<this.length;r++)e[r].style[t]=n}}]),t}(),U=/-./g,Q=function(t,n){return n.toUpperCase()};function H(t){return"function"==typeof t?t:T}function J(t){return t?"function"==typeof t?t:Array.isArray(t)?function(t){var n=arguments.length>1&&void 0!==arguments[1]?arguments[1]:b;if(!Array.isArray(t))return n;switch(t.length){case 1:return k(t[0])||n;case 2:return k(t[0],t[1])||n;case 4:return A(t[0],t[1],t[2],t[3])||n}return n}(t,null):function(t,n){var e=arguments.length>2&&void 0!==arguments[2]?arguments[2]:b;switch(t){case"linear":return b;case"steps":return k(n.steps||1,n.jump||0)||e;case"bezier":case"cubic-bezier":return A(n.x1||0,n.y1||0,n.x2||0,n.y2||0)||e}return e}(t.type,t.value,null):null}function Z(t,n,e){var r=arguments.length>3&&void 0!==arguments[3]&&arguments[3],i=n.length-1;if(t<=n[0].t)return r?[0,0,n[0].v]:n[0].v;if(t>=n[i].t)return r?[i,1,n[i].v]:n[i].v;var o,u=n[0],a=null;for(o=1;o<=i;o++){if(!(t>n[o].t)){a=n[o];break}u=n[o]}return null==a?r?[i,1,n[i].v]:n[i].v:u.t===a.t?r?[o,1,a.v]:a.v:(t=(t-u.t)/(a.t-u.t),u.e&&(t=u.e(t)),r?[o,t,e(t,u.v,a.v)]:e(t,u.v,a.v))}function K(t,n){var e=arguments.length>2&&void 0!==arguments[2]?arguments[2]:null;return t&&t.length?"function"!=typeof n?null:("function"!=typeof e&&(e=null),function(r){var i=Z(r,t,n);return null!=i&&e&&(i=e(i)),i}):null}function W(t,n){return t.t-n.t}function X(t,n,r,i,o){var u,a="@"===r[0],l="#"===r[0],s=Y[r],f=T;switch(a?(u=r.substr(1),r=u.replace(U,Q)):l&&(r=r.substr(1)),e(s)){case"function":if(f=s(i,o,Z,J,r,a,n,t),l)return f;break;case"string":f=K(i,H(s));break;case"object":if((f=K(i,H(s.i),s.f))&&"function"==typeof s.u)return s.u(n,f,r,a,t)}return f?function(t,n,e){if(arguments.length>3&&void 0!==arguments[3]&&arguments[3])return t instanceof $?function(r){return t.style(n,e(r))}:function(r){return t.style[n]=e(r)};if(Array.isArray(n)){var r=n.length;return function(i){var o=e(i);if(null==o)for(var u=0;u<r;u++)t[u].removeAttribute(n);else for(var a=0;a<r;a++)t[a].setAttribute(n,o)}}return function(r){var i=e(r);null==i?t.removeAttribute(n):t.setAttribute(n,i)}}(n,r,f,a):null}function tt(t,n,r,i){if(!i||"object"!==e(i))return null;var o=null,u=null;return Array.isArray(i)?u=function(t){if(!t||!t.length)return null;for(var n=0;n<t.length;n++)t[n].e&&(t[n].e=J(t[n].e));return t.sort(W)}(i):(u=i.keys,o=i.data||null),u?X(t,n,r,u,o):null}function nt(t,n,e){if(!e)return null;var r=[];for(var i in e)if(e.hasOwnProperty(i)){var o=tt(t,n,i,e[i]);o&&r.push(o)}return r.length?r:null}function et(t,n){if(!n.settings.duration||n.settings.duration<0)return null;var e,r,i,o,u,a=function(t,n){if(!n)return null;var e=[];if(Array.isArray(n))for(var r=n.length,i=0;i<r;i++){var o=n[i];if(2===o.length){var u=null;if("string"==typeof o[0])u=t.getElementById(o[0]);else if(Array.isArray(o[0])){u=[];for(var a=0;a<o[0].length;a++)if("string"==typeof o[0][a]){var l=t.getElementById(o[0][a]);l&&u.push(l)}u=u.length?1===u.length?u[0]:new $(u):null}if(u){var s=nt(t,u,o[1]);s&&(e=e.concat(s))}}}else for(var f in n)if(n.hasOwnProperty(f)){var c=t.getElementById(f);if(c){var h=nt(t,c,n[f]);h&&(e=e.concat(h))}}return e.length?e:null}(t,n.elements);return a?(e=a,r=n.settings,i=r.duration,o=e.length,u=null,function(t,n){var a=r.iterations||1/0,l=(r.alternate&&a%2==0)^r.direction>0?i:0,s=t%i,f=1+(t-s)/i;n*=r.direction,r.alternate&&f%2==0&&(n=-n);var c=!1;if(f>a)s=l,c=!0,-1===r.fill&&(s=r.direction>0?0:i);else if(n<0&&(s=i-s),s===u)return!1;u=s;for(var h=0;h<o;h++)e[h](s);return c}):null}function rt(t,n){for(var e=n.querySelectorAll("svg"),r=0;r<e.length;r++)if(e[r].id===t.root&&!e[r].svgatorAnimation)return e[r].svgatorAnimation=!0,e[r];return null}function it(t){var n=function(t){return t.shadowRoot};return document?Array.from(t.querySelectorAll(":not("+["a","area","audio","br","canvas","circle","datalist","embed","g","head","hr","iframe","img","input","link","object","path","polygon","rect","script","source","style","svg","title","track","video"].join()+")")).filter(n).map(n):[]}function ot(t){var n=arguments.length>1&&void 0!==arguments[1]?arguments[1]:document,e=arguments.length>2&&void 0!==arguments[2]?arguments[2]:0,r=rt(t,n);if(r)return r;if(e>=20)return null;for(var i=it(n),o=0;o<i.length;o++){var u=ot(t,i[o],e+1);if(u)return u}return null}function ut(t,n){if(Y=n,!t||!t.root||!Array.isArray(t.animations))return null;var e=ot(t);if(!e)return null;var r=t.animations.map((function(t){return et(e,t)})).filter((function(t){return!!t}));return r.length?{svg:e,animations:r,animationSettings:t.animationSettings,options:t.options||void 0}:null}function at(t){var n=arguments.length>1&&void 0!==arguments[1]?arguments[1]:null,e=arguments.length>2&&void 0!==arguments[2]?arguments[2]:Number,r=arguments.length>3&&void 0!==arguments[3]?arguments[3]:"undefined"!=typeof BigInt&&BigInt,i="0x"+(t.replace(/[^0-9a-fA-F]+/g,"")||27);return n&&r&&e.isSafeInteger&&!e.isSafeInteger(+i)?e(r(i))%n+n:+i}function lt(t,n,e){return!t||!e||n>t.length?t:t.substring(0,n)+lt(t.substring(n+1),e,e)}function st(t){var n=arguments.length>1&&void 0!==arguments[1]?arguments[1]:27;return!t||t%n?t%n:[0,1].includes(n)?n:st(t/n,n)}function ft(t,n,e){if(t&&t.length){var r=at(e),i=st(r)+5,o=lt(t,st(r,5),i);return o=o.replace(/\x7c$/g,"==").replace(/\x2f$/g,"="),o=function(t,n,e){var r=+("0x"+t.substring(0,4));t=t.substring(4);for(var i=at(n,r)%r+e%27,o=[],u=0;u<t.length;u+=2)if("|"!==t[u]){var a=+("0x"+t[u]+t[u+1])-i;o.push(a)}else{var l=+("0x"+t.substring(u+1,u+1+4))-i;u+=3,o.push(l)}return String.fromCharCode.apply(String,o)}(o=(o=atob(o)).replace(/[\x41-\x5A]/g,""),n,r),o=JSON.parse(o)}}var ct=[{key:"alternate",def:!1},{key:"fill",def:1},{key:"iterations",def:0},{key:"direction",def:1},{key:"speed",def:1},{key:"fps",def:100}],ht=function(){function t(n,e){var i=this,o=arguments.length>2&&void 0!==arguments[2]?arguments[2]:null;r(this,t),this._id=0,this._running=!1,this._rollingBack=!1,this._animations=n,this._settings=e,(!o||o<"2022-05-02")&&delete this._settings.speed,ct.forEach((function(t){i._settings[t.key]=i._settings[t.key]||t.def})),this.duration=e.duration,this.offset=e.offset||0,this.rollbackStartOffset=0}return o(t,[{key:"alternate",get:function(){return this._settings.alternate}},{key:"fill",get:function(){return this._settings.fill}},{key:"iterations",get:function(){return this._settings.iterations}},{key:"direction",get:function(){return this._settings.direction}},{key:"speed",get:function(){return this._settings.speed}},{key:"fps",get:function(){return this._settings.fps}},{key:"maxFiniteDuration",get:function(){return this.iterations>0?this.iterations*this.duration:this.duration}},{key:"_apply",value:function(t){for(var n=arguments.length>1&&void 0!==arguments[1]?arguments[1]:{},e=this._animations,r=e.length,i=0,o=0;o<r;o++)n[o]?i++:(n[o]=e[o](t,1),n[o]&&i++);return i}},{key:"_rollback",value:function(t){var n=this,e=1/0,r=null;this.rollbackStartOffset=t,this._rollingBack=!0,this._running=!0;this._id=window.requestAnimationFrame((function i(o){if(n._rollingBack){null==r&&(r=o);var u=Math.round(t-(o-r)*n.speed);if(u>n.duration&&e!==1/0){var a=!!n.alternate&&u/n.duration%2>1,l=u%n.duration;u=(l+=a?n.duration:0)||n.duration}var s=(n.fps?1e3/n.fps:0)*n.speed,f=Math.max(0,u);f<=e-s&&(n.offset=f,e=f,n._apply(f));var c=n.iterations>0&&-1===n.fill&&u>=n.maxFiniteDuration;(u<=0||n.offset<u||c)&&n.stop(),n._id=window.requestAnimationFrame(i)}}))}},{key:"_start",value:function(){var t=this,n=arguments.length>0&&void 0!==arguments[0]?arguments[0]:0,e=-1/0,r=null,i={};this._running=!0;var o=function o(u){null==r&&(r=u);var a=Math.round((u-r)*t.speed+n),l=(t.fps?1e3/t.fps:0)*t.speed;if(a>=e+l&&!t._rollingBack&&(t.offset=a,e=a,t._apply(a,i)===t._animations.length))return void t.pause(!0);t._id=window.requestAnimationFrame(o)};this._id=window.requestAnimationFrame(o)}},{key:"_pause",value:function(){this._id&&window.cancelAnimationFrame(this._id),this._running=!1}},{key:"play",value:function(){if(!this._running)return this._rollingBack?this._rollback(this.offset):this._start(this.offset)}},{key:"stop",value:function(){this._pause(),this.offset=0,this.rollbackStartOffset=0,this._rollingBack=!1,this._apply(0)}},{key:"reachedToEnd",value:function(){return this.iterations>0&&this.offset>=this.iterations*this.duration}},{key:"restart",value:function(){var t=arguments.length>0&&void 0!==arguments[0]&&arguments[0];this.stop(t),this.play(t)}},{key:"pause",value:function(){this._pause()}},{key:"reverse",value:function(){this.direction=-this.direction}}],[{key:"build",value:function(t,n){delete t.animationSettings,t.options=ft(t.options,t.root,"5c7f360c"),t.animations.map((function(n){n.settings=ft(n.s,t.root,"5c7f360c"),delete n.s,t.animationSettings||(t.animationSettings=n.settings)}));var e=t.version;if(!(t=ut(t,n)))return null;var r=t.options||{},i=new this(t.animations,t.animationSettings,e);return{el:t.svg,options:r,player:i}}},{key:"push",value:function(t){return this.build(t)}},{key:"init",value:function(){var t=this,n=window.__SVGATOR_PLAYER__&&window.__SVGATOR_PLAYER__["5c7f360c"];Array.isArray(n)&&n.splice(0).forEach((function(n){return t.build(n)}))}}]),t}();function vt(t){return d(t)+""}function yt(t){var n=arguments.length>1&&void 0!==arguments[1]?arguments[1]:" ";return t&&t.length?t.map(vt).join(n):""}function gt(t){if(!t)return"transparent";if(null==t.a||t.a>=1){var n=function(t){return 1===(t=parseInt(t).toString(16)).length?"0"+t:t},e=function(t){return t.charAt(0)===t.charAt(1)},r=n(t.r),i=n(t.g),o=n(t.b);return e(r)&&e(i)&&e(o)&&(r=r.charAt(0),i=i.charAt(0),o=o.charAt(0)),"#"+r+i+o}return"rgba("+t.r+","+t.g+","+t.b+","+t.a+")"}function dt(t){return t?"url(#"+t+")":"none"}!function(){for(var t=0,n=["ms","moz","webkit","o"],e=0;e<n.length&&!window.requestAnimationFrame;++e)window.requestAnimationFrame=window[n[e]+"RequestAnimationFrame"],window.cancelAnimationFrame=window[n[e]+"CancelAnimationFrame"]||window[n[e]+"CancelRequestAnimationFrame"];window.requestAnimationFrame||(window.requestAnimationFrame=function(n){var e=Date.now(),r=Math.max(0,16-(e-t)),i=window.setTimeout((function(){n(e+r)}),r);return t=e+r,i},window.cancelAnimationFrame=window.clearTimeout)}();var pt={f:null,i:function(t,n,e){return 0===t?n:1===t?e:{x:B(t,n.x,e.x),y:B(t,n.y,e.y)}},u:function(t,n){return function(e){var r=n(e);t.setAttribute("rx",vt(r.x)),t.setAttribute("ry",vt(r.y))}}},mt={f:null,i:function(t,n,e){return 0===t?n:1===t?e:{width:B(t,n.width,e.width),height:B(t,n.height,e.height)}},u:function(t,n){return function(e){var r=n(e);t.setAttribute("width",vt(r.width)),t.setAttribute("height",vt(r.height))}}};Object.freeze({M:2,L:2,Z:0,H:1,V:1,C:6,Q:4,T:2,S:4,A:7});var bt={},wt=null;function At(t){var n=function(){if(wt)return wt;if("object"!==("undefined"==typeof document?"undefined":e(document))||!document.createElementNS)return{};var t=document.createElementNS("http://www.w3.org/2000/svg","svg");return t&&t.style?(t.style.position="absolute",t.style.opacity="0.01",t.style.zIndex="-9999",t.style.left="-9999px",t.style.width="1px",t.style.height="1px",wt={svg:t}):{}}().svg;if(!n)return function(t){return null};var r=document.createElementNS(n.namespaceURI,"path");r.setAttributeNS(null,"d",t),r.setAttributeNS(null,"fill","none"),r.setAttributeNS(null,"stroke","none"),n.appendChild(r);var i=r.getTotalLength();return function(t){var n=r.getPointAtLength(i*t);return{x:n.x,y:n.y}}}function _t(t){return bt[t]?bt[t]:bt[t]=At(t)}function xt(t,n,e,r){if(!t||!r)return!1;var i=["M",t.x,t.y];if(n&&e&&(i.push("C"),i.push(n.x),i.push(n.y),i.push(e.x),i.push(e.y)),n?!e:e){var o=n||e;i.push("Q"),i.push(o.x),i.push(o.y)}return n||e||i.push("L"),i.push(r.x),i.push(r.y),i.join(" ")}function kt(t,n,e,r){var i=arguments.length>4&&void 0!==arguments[4]?arguments[4]:1,o=xt(t,n,e,r),u=_t(o);try{return u(i)}catch(t){return null}}function St(t,n,e){return t+(n-t)*e}function Ot(t,n,e){var r=arguments.length>3&&void 0!==arguments[3]&&arguments[3],i={x:St(t.x,n.x,e),y:St(t.y,n.y,e)};return r&&(i.a=jt(t,n)),i}function jt(t,n){return Math.atan2(n.y-t.y,n.x-t.x)}function Et(t,n,e,r){var i=1-r;return i*i*t+2*i*r*n+r*r*e}function Mt(t,n,e,r){return 2*(1-r)*(n-t)+2*r*(e-n)}function Pt(t,n,e,r){var i=arguments.length>4&&void 0!==arguments[4]&&arguments[4],o=kt(t,n,null,e,r);return o||(o={x:Et(t.x,n.x,e.x,r),y:Et(t.y,n.y,e.y,r)}),i&&(o.a=It(t,n,e,r)),o}function It(t,n,e,r){return Math.atan2(Mt(t.y,n.y,e.y,r),Mt(t.x,n.x,e.x,r))}function Rt(t,n,e,r,i){var o=i*i;return i*o*(r-t+3*(n-e))+3*o*(t+e-2*n)+3*i*(n-t)+t}function Ft(t,n,e,r,i){var o=1-i;return 3*(o*o*(n-t)+2*o*i*(e-n)+i*i*(r-e))}function Nt(t,n,e,r,i){var o=arguments.length>5&&void 0!==arguments[5]&&arguments[5],u=kt(t,n,e,r,i);return u||(u={x:Rt(t.x,n.x,e.x,r.x,i),y:Rt(t.y,n.y,e.y,r.y,i)}),o&&(u.a=Tt(t,n,e,r,i)),u}function Tt(t,n,e,r,i){return Math.atan2(Ft(t.y,n.y,e.y,r.y,i),Ft(t.x,n.x,e.x,r.x,i))}function qt(t,n,e){var r=arguments.length>3&&void 0!==arguments[3]&&arguments[3];if(Dt(n)){if(Lt(e))return Pt(n,e.start,e,t,r)}else if(Dt(e)){if(Ct(n))return Pt(n,n.end,e,t,r)}else{if(Ct(n))return Lt(e)?Nt(n,n.end,e.start,e,t,r):Pt(n,n.end,e,t,r);if(Lt(e))return Pt(n,e.start,e,t,r)}return Ot(n,e,t,r)}function Bt(t,n,e){var r=qt(t,n,e,!0);return r.a=function(t){return arguments.length>1&&void 0!==arguments[1]&&arguments[1]?t+Math.PI:t}(r.a)/m,r}function Dt(t){return!t.type||"corner"===t.type}function Lt(t){return null!=t.start&&!Dt(t)}function Ct(t){return null!=t.end&&!Dt(t)}var Vt=new N;var Gt={f:vt,i:q},zt={f:vt,i:D};function Yt(t,n,e){return t.map((function(t){return function(t,n,e){var r=t.v;if(!r||"g"!==r.t||r.s||!r.v||!r.r)return t;var i=e.getElementById(r.r),o=i&&i.querySelectorAll("stop")||[];return r.s=r.v.map((function(t,n){var e=o[n]&&o[n].getAttribute("offset");return{c:t,o:e=d(parseInt(e)/100)}})),delete r.v,t}(t,0,e)}))}var $t={gt:"gradientTransform",c:{x:"cx",y:"cy"},rd:"r",f:{x:"x1",y:"y1"},to:{x:"x2",y:"y2"}};function Ut(t,n,r,i,o,u,a,l){return Yt(t,0,l),n=function(t,n,e){for(var r,i,o,u=t.length-1,a={},l=0;l<=u;l++)(r=t[l]).e&&(r.e=n(r.e)),r.v&&"g"===(i=r.v).t&&i.r&&(o=e.getElementById(i.r))&&(a[i.r]={e:o,s:o.querySelectorAll("stop")});return a}(t,i,l),function(i){var o=r(i,t,Qt);if(!o)return"none";if("c"===o.t)return gt(o.v);if("g"===o.t){if(!n[o.r])return dt(o.r);var u=n[o.r];return function(t,n){for(var e=t.s,r=e.length;r<n.length;r++){var i=e[e.length-1].cloneNode();i.id=Zt(i.id),t.e.appendChild(i),e=t.s=t.e.querySelectorAll("stop")}for(var o=0,u=e.length,a=n.length-1;o<u;o++)e[o].setAttribute("stop-color",gt(n[Math.min(o,a)].c)),e[o].setAttribute("offset",n[Math.min(o,a)].o)}(u,o.s),Object.keys($t).forEach((function(t){if(void 0!==o[t])if("object"!==e($t[t])){var n,r="gt"===t?(n=o[t],Array.isArray(n)?"matrix("+n.join(" ")+")":""):o[t],i=$t[t];u.e.setAttribute(i,r)}else Object.keys($t[t]).forEach((function(n){if(void 0!==o[t][n]){var e=o[t][n],r=$t[t][n];u.e.setAttribute(r,e)}}))})),dt(o.r)}return"none"}}function Qt(t,e,r){if(0===t)return e;if(1===t)return r;if(e&&r){var i=e.t;if(i===r.t)switch(e.t){case"c":return{t:i,v:V(t,e.v,r.v)};case"g":if(e.r===r.r){var o={t:i,s:Ht(t,e.s,r.s),r:e.r};return e.gt&&r.gt&&(o.gt=function(t,n,e){var r=n.length;if(r!==e.length)return T(t,n,e);for(var i=new Array(r),o=0;o<r;o++)i[o]=q(t,n[o],e[o]);return i}(t,e.gt,r.gt)),e.c?(o.c=L(t,e.c,r.c),o.rd=B(t,e.rd,r.rd)):e.f&&(o.f=L(t,e.f,r.f),o.to=L(t,e.to,r.to)),o}}if("c"===e.t&&"g"===r.t||"c"===r.t&&"g"===e.t){var u="c"===e.t?e:r,a="g"===e.t?n({},e):n({},r),l=a.s.map((function(t){return{c:u.v,o:t.o}}));return a.s="c"===e.t?Ht(t,l,a.s):Ht(t,a.s,l),a}}return T(t,e,r)}function Ht(t,n,e){if(n.length===e.length)return n.map((function(n,r){return Jt(t,n,e[r])}));for(var r=Math.max(n.length,e.length),i=[],o=0;o<r;o++){var u=Jt(t,n[Math.min(o,n.length-1)],e[Math.min(o,e.length-1)]);i.push(u)}return i}function Jt(t,n,e){return{o:D(t,n.o,e.o||0),c:V(t,n.c,e.c||{})}}function Zt(t){return t.replace(/-fill-([0-9]+)$/,(function(t,n){return"-fill-"+(+n+1)}))}var Kt={fill:Ut,"fill-opacity":zt,stroke:Ut,"stroke-opacity":zt,"stroke-width":Gt,"stroke-dashoffset":{f:vt,i:q},"stroke-dasharray":{f:function(t){var n=arguments.length>1&&void 0!==arguments[1]?arguments[1]:" ";return t&&t.length>0&&(t=t.map((function(t){return d(t,4)}))),yt(t,n)},i:function(t,n,e){var r,i,o,u=n.length,a=e.length;if(u!==a)if(0===u)n=G(u=a,0);else if(0===a)a=u,e=G(u,0);else{var l=(o=(r=u)*(i=a)/function(t,n){for(var e;n;)e=n,n=t%n,t=e;return t||1}(r,i))<0?-o:o;n=z(n,Math.floor(l/u)),e=z(e,Math.floor(l/a)),u=a=l}for(var s=[],f=0;f<u;f++)s.push(d(B(t,n[f],e[f])));return s}},opacity:zt,transform:function(t,n,r,i){if(!(t=function(t,n){if(!t||"object"!==e(t))return null;var r=!1;for(var i in t)t.hasOwnProperty(i)&&(t[i]&&t[i].length?(t[i].forEach((function(t){t.e&&(t.e=n(t.e))})),r=!0):delete t[i]);return r?t:null}(t,i)))return null;var o=function(e,i,o){var u=arguments.length>3&&void 0!==arguments[3]?arguments[3]:null;return t[e]?r(i,t[e],o):n&&n[e]?n[e]:u};return n&&n.a&&t.o?function(n){var e=r(n,t.o,Bt);return Vt.recomposeSelf(e,o("r",n,q,0)+e.a,o("k",n,L),o("s",n,L),o("t",n,L)).toString()}:function(t){return Vt.recomposeSelf(o("o",t,qt,null),o("r",t,q,0),o("k",t,L),o("s",t,L),o("t",t,L)).toString()}},r:Gt,"#size":mt,"#radius":pt,_:function(t,n){if(Array.isArray(t))for(var e=0;e<t.length;e++)this[t[e]]=n;else this[t]=n}},Wt=function(t){!function(t,n){if("function"!=typeof n&&null!==n)throw new TypeError("Super expression must either be null or a function");t.prototype=Object.create(n&&n.prototype,{constructor:{value:t,writable:!0,configurable:!0}}),n&&l(t,n)}(u,t);var n,e,i=(n=u,e=s(),function(){var t,r=a(n);if(e){var i=a(this).constructor;t=Reflect.construct(r,arguments,i)}else t=r.apply(this,arguments);return c(this,t)});function u(){return r(this,u),i.apply(this,arguments)}return o(u,null,[{key:"build",value:function(t){var n=h(a(u),"build",this).call(this,t,Kt);if(!n)return null;n.el,n.options,function(t,n,e){t.play()}(n.player)}}]),u}(ht);return Wt.init(),Wt}));
(function(s,i,o,w,d,a,b){w[o]=w[o]||{};w[o][s]=w[o][s]||[];w[o][s].push(i);})('5c7f360c',{"root":"eI5yeulYVJk1","version":"2022-05-04","animations":[{"elements":{"eI5yeulYVJk33":{"transform":{"keys":{"o":[{"t":0,"v":{"x":-198.474,"y":-154.312,"type":"corner"}},{"t":1000,"v":{"x":-194.717495,"y":-174.02513,"type":"corner"}},{"t":2000,"v":{"x":-198.474,"y":-154.312,"type":"corner","start":{"x":-198.474,"y":-154.312},"end":{"x":-198.474,"y":-154.312}}}]}}},"eI5yeulYVJk34":{"transform":{"keys":{"o":[{"t":0,"v":{"x":-198.474,"y":-154.312,"type":"corner"}},{"t":1000,"v":{"x":-203.292521,"y":-154.312,"type":"corner"}},{"t":2000,"v":{"x":-198.474,"y":-154.312,"type":"corner","start":{"x":-198.474,"y":-154.312},"end":{"x":-198.474,"y":-154.312}}}]}}},"eI5yeulYVJk45":{"transform":{"data":{"r":-80.782676,"s":{"x":1.000002,"y":1.000002},"t":{"x":549.754,"y":320.563}},"keys":{"o":[{"t":0,"v":{"x":-53.2048,"y":657.557,"type":"corner"}},{"t":1000,"v":{"x":-53.2048,"y":647.772329,"type":"corner"}},{"t":2000,"v":{"x":-53.2048,"y":657.557,"type":"corner","start":{"x":-53.2048,"y":657.557},"end":{"x":-53.2048,"y":657.557}}}]}}},"eI5yeulYVJk46":{"transform":{"keys":{"o":[{"t":0,"v":{"x":-198.474,"y":-154.312,"type":"corner"}},{"t":1000,"v":{"x":-198.474,"y":-165.569507,"type":"corner"}},{"t":2000,"v":{"x":-198.474,"y":-154.312,"type":"corner","start":{"x":-198.474,"y":-154.312},"end":{"x":-198.474,"y":-154.312}}}]}}},"eI5yeulYVJk49":{"transform":{"data":{"s":{"x":2.336548,"y":2.356367},"t":{"x":-603.319397,"y":-287.774696}},"keys":{"o":[{"t":0,"v":{"x":589.961975,"y":504.717905,"type":"corner"}},{"t":1000,"v":{"x":534.506783,"y":504.717906,"type":"corner"}},{"t":2000,"v":{"x":589.961975,"y":504.717905,"type":"corner","start":{"x":589.961975,"y":504.717905},"end":{"x":589.961975,"y":504.717905}}}]}}}},"s":"MFDA1ZEJkMDc3YjljYWNM3YjZjOWJlYzRjMzcM3OGY4Nzg1ODU4NTgxGNzdiOWJlYzdiYWI4SLGM5YmVjNGMzNzc4ZlGQ4NjgxNzdiZWM5UWJOhYzdiNmM5YmVjNGMzPYzg3NzhmODU4MTc3YNmJiZWMxYzE3NzhmODLY4MTc3YjZjMWM5YmFIjN2MzYjZjOWJhNzc4PZmJiYjZjMWM4YmE4MSTc3YzhjNWJhYmFiOTGc3OGY4NjgxNzdiYmMO1Yzg3NzhmODY4NTg1TZDJJ"}],"options":"MBDAxMDg4MmY4ME84MTPZlN2Y4MTJmNDcyZjcA5SzdjNmU3MTJmOGE/U"},'__SVGATOR_PLAYER__',window,document)
]]></script>
</svg>
